<?xml version="1.0" encoding="utf-8"?>
<!-- Generator: Adobe Illustrator 16.0.0, SVG Export Plug-In . SVG Version: 6.00 Build 0)  -->
<!DOCTYPE svg PUBLIC "-//W3C//DTD SVG 1.1//EN" "http://www.w3.org/Graphics/SVG/1.1/DTD/svg11.dtd">
<svg version="1.1" id="Layer_1" xmlns="http://www.w3.org/2000/svg" xmlns:xlink="http://www.w3.org/1999/xlink" x="0px" y="0px"
	 width="1140px" height="800px" viewBox="0 0 1140 800" enable-background="new 0 0 1140 800" xml:space="preserve">
<g>
	<g opacity="0.5">
		<path d="M153.541,631.941l-5.24,11.593l-3.282-0.953l16.409-35.041h4.235l1.482,35.041l-3.705,0.953l-0.265-11.593H153.541z
			 M162.592,612.251h-0.106l-7.41,16.515h7.94L162.592,612.251z"/>
		<path d="M178.366,642.846l0.688-3.176h2.858l6.14-28.954h-2.858l0.688-3.176h10.798c3.864,0,7.146,3.229,5.929,8.893
			c-0.635,2.911-2.329,5.398-5.188,6.828c3.599,1.747,4.394,4.764,3.494,8.998c-1.588,7.358-6.299,10.587-11.169,10.587H178.366z
			 M190.275,639.67c3.176,0,5.823-2.329,6.934-7.464c1.112-5.24-1.111-6.987-4.817-6.987h-3.864l-3.07,14.451H190.275z
			 M192.393,622.043c3.652,0,5.717-1.905,6.511-5.61c0.9-4.341-0.953-5.717-5.24-5.717h-2.064l-2.382,11.327H192.393z"/>
		<path d="M233.098,625.166c-0.953,4.446-3.706,18.156-13.657,18.156c-10.057,0-6.881-13.604-5.928-18.156
			c1.217-5.822,4.234-18.103,13.656-18.103C237.121,607.063,234.104,620.508,233.098,625.166z M217.218,625.166
			c-2.011,9.528-2.064,14.821,2.911,14.821c6.14,0,7.94-8.681,9.263-14.821c1.429-6.669,3.282-14.769-2.964-14.769
			S218.33,619.979,217.218,625.166z"/>
		<path d="M253.741,607.54l-5.452,25.672c-0.741,3.493-0.794,6.775,3.599,6.775c4.394,0,5.875-3.335,6.617-6.775l5.452-25.672h3.546
			l-5.717,26.73c-1.165,5.505-5.346,9.052-10.586,9.052c-5.346,0-7.834-3.652-6.723-8.893l5.717-26.89H253.741z"/>
		<path d="M288.2,610.716h-7.622l0.688-3.176h18.632l-0.688,3.176h-7.464l-6.828,32.13h-3.546L288.2,610.716z"/>
		<path d="M200.386,671.06h4.446l-6.458,35.306h-3.758l5.558-29.431h-0.106l-9.792,17.732l-2.276-17.732h-0.105l-6.935,29.431
			h-3.705l8.575-35.306h4.394l1.905,14.979L200.386,671.06z"/>
		<path d="M219.494,671.06h17.204l-0.688,3.176h-13.657l-2.488,11.645h11.275l-0.635,3.177h-11.275l-3.017,14.133h13.657
			l-0.688,3.176h-17.203L219.494,671.06z"/>
		<path d="M282.271,698.531h4.87l-1.641,7.834h-4.87L282.271,698.531z"/>
	</g>
	<g>
		<path fill="none" stroke="#000000" d="M152.541,629.941l-5.24,11.593l-3.282-0.953l16.409-35.041h4.235l1.482,35.041l-3.705,0.953
			l-0.265-11.593H152.541z M161.592,610.251h-0.106l-7.41,16.515h7.94L161.592,610.251z"/>
		<path fill="none" stroke="#000000" d="M177.366,640.846l0.688-3.176h2.858l6.14-28.954h-2.858l0.688-3.176h10.798
			c3.864,0,7.146,3.229,5.929,8.893c-0.635,2.911-2.329,5.398-5.188,6.828c3.599,1.747,4.394,4.764,3.494,8.998
			c-1.588,7.358-6.299,10.587-11.169,10.587H177.366z M189.275,637.67c3.176,0,5.823-2.329,6.934-7.464
			c1.112-5.24-1.111-6.987-4.817-6.987h-3.864l-3.07,14.451H189.275z M191.393,620.043c3.652,0,5.717-1.905,6.511-5.61
			c0.9-4.341-0.953-5.717-5.24-5.717h-2.064l-2.382,11.327H191.393z"/>
		<path fill="none" stroke="#000000" d="M232.098,623.166c-0.953,4.446-3.706,18.156-13.657,18.156
			c-10.057,0-6.881-13.604-5.928-18.156c1.217-5.822,4.234-18.103,13.656-18.103C236.121,605.063,233.104,618.508,232.098,623.166z
			 M216.218,623.166c-2.011,9.528-2.064,14.821,2.911,14.821c6.14,0,7.94-8.681,9.263-14.821c1.429-6.669,3.282-14.769-2.964-14.769
			S217.33,617.979,216.218,623.166z"/>
		<path fill="none" stroke="#000000" d="M252.741,605.54l-5.452,25.672c-0.741,3.493-0.794,6.775,3.599,6.775
			c4.394,0,5.875-3.335,6.617-6.775l5.452-25.672h3.546l-5.717,26.73c-1.165,5.505-5.346,9.052-10.586,9.052
			c-5.346,0-7.834-3.652-6.723-8.893l5.717-26.89H252.741z"/>
		<path fill="none" stroke="#000000" d="M287.2,608.716h-7.622l0.688-3.176h18.632l-0.688,3.176h-7.464l-6.828,32.13h-3.546
			L287.2,608.716z"/>
		<path fill="none" stroke="#000000" d="M199.386,669.06h4.446l-6.458,35.306h-3.758l5.558-29.431h-0.106l-9.792,17.732
			l-2.276-17.732h-0.105l-6.935,29.431h-3.705l8.575-35.306h4.394l1.905,14.979L199.386,669.06z"/>
		<path fill="none" stroke="#000000" d="M218.494,669.06h17.204l-0.688,3.176h-13.657l-2.488,11.645h11.275l-0.635,3.177h-11.275
			l-3.017,14.133h13.657l-0.688,3.176h-17.203L218.494,669.06z"/>
		<path fill="none" stroke="#000000" d="M281.271,696.531h4.87l-1.641,7.834h-4.87L281.271,696.531z"/>
	</g>
</g>
<g>
	<rect x="1.465" y="302.754" fill="#060606" width="13.056" height="77.062"/>
	<rect x="1.465" y="381.148" fill="#060606" width="13.056" height="77.061"/>
</g>
<polygon fill="none" stroke="#000000" stroke-miterlimit="10" points="1118.148,40.524 1099.738,40.524 1099.738,22.114 
	1086.421,22.114 1086.421,40.524 1068.011,40.524 1068.011,53.842 1086.421,53.842 1086.421,72.252 1099.738,72.252 
	1099.738,53.842 1118.148,53.842 "/>
<g>
	<g>
		
			<circle fill="none" stroke="#000000" stroke-width="0.5" stroke-dasharray="12.0291,12.0291" cx="219.594" cy="644.351" r="114.865"/>
	</g>
	<g>
		<g>
			<line fill="none" stroke="#000000" stroke-width="0.5" x1="202.689" y1="529.433" x2="202.689" y2="523.433"/>
			
				<line fill="none" stroke="#000000" stroke-width="0.5" stroke-dasharray="12.1769,12.1769" x1="202.689" y1="511.256" x2="202.689" y2="395.575"/>
			<polyline fill="none" stroke="#000000" stroke-width="0.5" points="202.689,389.486 202.689,383.486 208.689,383.486 			"/>
			
				<line fill="none" stroke="#000000" stroke-width="0.5" stroke-dasharray="11.447,11.447" x1="220.136" y1="383.486" x2="351.776" y2="383.486"/>
			<line fill="none" stroke="#000000" stroke-width="0.5" x1="357.5" y1="383.486" x2="363.5" y2="383.486"/>
		</g>
	</g>
</g>
</svg>
