<?xml version="1.0" encoding="utf-8"?>
<!-- Generator: Adobe Illustrator 16.0.0, SVG Export Plug-In . SVG Version: 6.00 Build 0)  -->
<!DOCTYPE svg PUBLIC "-//W3C//DTD SVG 1.1//EN" "http://www.w3.org/Graphics/SVG/1.1/DTD/svg11.dtd">
<svg version="1.1" id="Layer_1" xmlns="http://www.w3.org/2000/svg" xmlns:xlink="http://www.w3.org/1999/xlink" x="0px" y="0px"
	 width="1000px" height="800px" viewBox="0 0 1000 800" enable-background="new 0 0 1000 800" xml:space="preserve">
<path d="M623.943,52.338c0,3.111-2.522,5.634-5.634,5.634H381.69c-3.111,0-5.634-2.522-5.634-5.634l0,0
	c0-3.111,2.522-5.634,5.634-5.634H618.31C621.421,46.704,623.943,49.227,623.943,52.338L623.943,52.338z"/>
<g opacity="0.6">
	<g>
		<path d="M144.853,191.387c-1.895,8.812-4.53,28.165-21.329,28.165c-16.8,0-11.365-18.694-9.306-28.165
			c2.718-12.929,5.353-28.247,21.329-28.247C153.005,163.141,146.17,185.211,144.853,191.387z M119.982,191.387
			c-4.611,21.576-0.988,22.977,4.612,22.977c6.341,0,10.129-2.553,14.494-22.977c4.529-21.247,1.153-23.058-4.694-23.058
			C124.018,168.329,122.289,180.435,119.982,191.387z"/>
		<path d="M181.66,170.552l-10.871,3.871l-0.659-5.023l18.694-6.588l-10.87,51.058h11.776l-1.07,4.941h-31.129l1.07-4.941h13.835
			L181.66,170.552z"/>
	</g>
</g>
<g opacity="0.6">
	<g>
		<path d="M144.853,388.032c-1.895,8.812-4.53,28.165-21.329,28.165c-16.8,0-11.365-18.694-9.306-28.165
			c2.718-12.929,5.353-28.247,21.329-28.247C153.005,359.786,146.17,381.856,144.853,388.032z M119.982,388.032
			c-4.611,21.576-0.988,22.977,4.612,22.977c6.341,0,10.129-2.554,14.494-22.977c4.529-21.247,1.153-23.058-4.694-23.058
			C124.018,364.974,122.289,377.08,119.982,388.032z"/>
		<path d="M158.849,410.515l25.941-26.271c3.212-3.294,5.765-5.847,6.753-10.294c1.07-5.188-1.565-8.976-6.917-8.976
			c-6.506,0-10.871,5.105-12.929,11.035l-5.271-0.741c3.211-9.141,9.635-15.482,19.353-15.482c8.647,0,13.423,5.271,11.611,14
			c-1.153,5.271-4.694,9.388-8.646,13.423l-22.894,23.306h23.635l-1.07,4.94h-30.635L158.849,410.515z"/>
	</g>
</g>
<g opacity="0.6">
	<g>
		<path d="M144.853,584.678c-1.895,8.812-4.53,28.164-21.329,28.164c-16.8,0-11.365-18.693-9.306-28.164
			c2.718-12.93,5.353-28.246,21.329-28.246C153.005,556.432,146.17,578.502,144.853,584.678z M119.982,584.678
			c-4.611,21.576-0.988,22.977,4.612,22.977c6.341,0,10.129-2.553,14.494-22.977c4.529-21.246,1.153-23.059-4.694-23.059
			C124.018,561.619,122.289,573.725,119.982,584.678z"/>
		<path d="M171.284,578.831l19.765-16.718h-22.894l1.07-4.941h30.47l-1.071,4.941l-18.529,15.564
			c8.564-0.164,14.823,4.859,12.929,14c-1.565,7.33-6.67,13.012-13.506,16.717c-5.188,2.801-10.871,4.447-21.412,4.447l1.071-5.188
			c9.059,0,13.176-1.07,16.388-2.635c5.435-2.719,10.376-7.412,11.611-13.177c1.482-7-4.2-9.224-10.294-9.224
			c-2.141,0-4.365,0.412-6.588,0.658L171.284,578.831z"/>
	</g>
</g>
<g>
	<g>
		<path fill="none" stroke="#000000" stroke-width="0.75" d="M142.853,189.387c-1.895,8.812-4.53,28.165-21.329,28.165
			c-16.8,0-11.365-18.694-9.306-28.165c2.718-12.929,5.353-28.247,21.329-28.247C151.005,161.141,144.17,183.211,142.853,189.387z
			 M117.982,189.387c-4.611,21.576-0.988,22.977,4.612,22.977c6.341,0,10.129-2.553,14.494-22.977
			c4.529-21.247,1.153-23.058-4.694-23.058C122.018,166.329,120.289,178.435,117.982,189.387z"/>
		<path fill="none" stroke="#000000" stroke-width="0.75" d="M179.66,168.552l-10.871,3.871l-0.659-5.023l18.694-6.588
			l-10.87,51.058h11.776l-1.07,4.941h-31.129l1.07-4.941h13.835L179.66,168.552z"/>
	</g>
</g>
<g>
	<g>
		<path fill="none" stroke="#000000" stroke-width="0.75" d="M142.853,386.032c-1.895,8.812-4.53,28.165-21.329,28.165
			c-16.8,0-11.365-18.694-9.306-28.165c2.718-12.929,5.353-28.247,21.329-28.247C151.005,357.786,144.17,379.856,142.853,386.032z
			 M117.982,386.032c-4.611,21.576-0.988,22.977,4.612,22.977c6.341,0,10.129-2.554,14.494-22.977
			c4.529-21.247,1.153-23.058-4.694-23.058C122.018,362.974,120.289,375.08,117.982,386.032z"/>
		<path fill="none" stroke="#000000" stroke-width="0.75" d="M156.849,408.515l25.941-26.271c3.212-3.294,5.765-5.847,6.753-10.294
			c1.07-5.188-1.565-8.976-6.917-8.976c-6.506,0-10.871,5.105-12.929,11.035l-5.271-0.741c3.211-9.141,9.635-15.482,19.353-15.482
			c8.647,0,13.423,5.271,11.611,14c-1.153,5.271-4.694,9.388-8.646,13.423l-22.894,23.306h23.635l-1.07,4.94h-30.635
			L156.849,408.515z"/>
	</g>
</g>
<g>
	<g>
		<path fill="none" stroke="#000000" stroke-width="0.75" d="M142.853,582.678c-1.895,8.812-4.53,28.164-21.329,28.164
			c-16.8,0-11.365-18.693-9.306-28.164c2.718-12.93,5.353-28.246,21.329-28.246C151.005,554.432,144.17,576.502,142.853,582.678z
			 M117.982,582.678c-4.611,21.576-0.988,22.977,4.612,22.977c6.341,0,10.129-2.553,14.494-22.977
			c4.529-21.246,1.153-23.059-4.694-23.059C122.018,559.619,120.289,571.725,117.982,582.678z"/>
		<path fill="none" stroke="#000000" stroke-width="0.75" d="M169.284,576.831l19.765-16.718h-22.894l1.07-4.941h30.47l-1.071,4.941
			l-18.529,15.564c8.564-0.164,14.823,4.859,12.929,14c-1.565,7.33-6.67,13.012-13.506,16.717
			c-5.188,2.801-10.871,4.447-21.412,4.447l1.071-5.188c9.059,0,13.176-1.07,16.388-2.635c5.435-2.719,10.376-7.412,11.611-13.177
			c1.482-7-4.2-9.224-10.294-9.224c-2.141,0-4.365,0.412-6.588,0.658L169.284,576.831z"/>
	</g>
</g>
<rect x="99.33" y="293.79" opacity="0.1" width="798.648" height="4.054"/>
<rect x="99.33" y="490.435" opacity="0.1" width="798.648" height="4.055"/>
<rect x="99.33" y="687.08" opacity="0.1" width="798.648" height="4.055"/>
<rect x="96.33" y="290.79" fill="none" stroke="#000000" stroke-width="0.25" width="798.648" height="4.054"/>
<rect x="96.33" y="487.435" fill="none" stroke="#000000" stroke-width="0.25" width="798.648" height="4.055"/>
<rect x="96.33" y="684.08" fill="none" stroke="#000000" stroke-width="0.25" width="798.648" height="4.055"/>
</svg>
