<?xml version="1.0" encoding="utf-8"?>
<!-- Generator: Adobe Illustrator 16.0.0, SVG Export Plug-In . SVG Version: 6.00 Build 0)  -->
<!DOCTYPE svg PUBLIC "-//W3C//DTD SVG 1.1//EN" "http://www.w3.org/Graphics/SVG/1.1/DTD/svg11.dtd">
<svg version="1.1" id="Layer_1" xmlns="http://www.w3.org/2000/svg" xmlns:xlink="http://www.w3.org/1999/xlink" x="0px" y="0px"
	 width="200.933px" height="200.933px" viewBox="0 0 200.933 200.933" enable-background="new 0 0 200.933 200.933"
	 xml:space="preserve">
<g>
	<circle fill="none" stroke="#000000" stroke-miterlimit="10" cx="100.466" cy="100.466" r="90.541"/>
	<g>
		<g>
			<path fill="none" stroke="#000000" stroke-width="0.6799" d="M43.968,129.627h6.263c5.327,0,7.271,2.196,5.796,9.144
				c-1.261,5.867-3.06,9.61-9.791,9.61h-6.264l0.468-2.16h1.944l3.06-14.434h-1.944L43.968,129.627z M44.795,146.221h2.556
				c3.168,0,4.932-1.8,6.084-7.198c1.224-5.76-0.108-7.235-3.096-7.235h-2.484L44.795,146.221z"/>
			<path fill="none" stroke="#000000" stroke-width="0.6799" d="M66.928,129.627h11.699l-0.469,2.16h-9.286l-1.188,5.615h7.667
				l-0.468,2.159h-7.667l-1.403,6.659h9.286l-0.468,2.16H62.933L66.928,129.627z"/>
			<path fill="none" stroke="#000000" stroke-width="0.6799" d="M92.049,131.787h-5.184l0.468-2.16h12.67l-0.468,2.16H94.46
				l-3.527,16.594h-2.412L92.049,131.787z"/>
			<path fill="none" stroke="#000000" stroke-width="0.6799" d="M109.034,143.27l-2.952,5.579l-2.195-0.863l9.826-18.358h3.096
				l1.979,18.358l-2.556,0.863l-0.539-5.579H109.034z M114.649,132.435l-4.5,8.675h5.327L114.649,132.435z"/>
			<path fill="none" stroke="#000000" stroke-width="0.6799" d="M129.475,146.221h2.628l3.06-14.434h-2.628l0.468-2.16h7.703
				l-0.468,2.16h-2.664l-3.06,14.434h2.664l-0.468,2.16h-7.703L129.475,146.221z"/>
			<path fill="none" stroke="#000000" stroke-width="0.6799" d="M153.767,129.627h2.412l-3.527,16.594h9.826l-0.468,2.16h-12.238
				L153.767,129.627z"/>
		</g>
	</g>
	<line fill="none" stroke="#000000" stroke-width="0.6907" x1="37.097" y1="90.358" x2="165.391" y2="90.358"/>
	<line fill="none" stroke="#000000" stroke-width="0.6799" x1="121.349" y1="78.197" x2="166.016" y2="90.197"/>
	<line fill="none" stroke="#000000" stroke-width="0.6799" x1="121.349" y1="102.197" x2="166.016" y2="90.197"/>
</g>
</svg>
