<?xml version="1.0" encoding="utf-8"?>
<!-- Generator: Adobe Illustrator 16.0.0, SVG Export Plug-In . SVG Version: 6.00 Build 0)  -->
<!DOCTYPE svg PUBLIC "-//W3C//DTD SVG 1.1//EN" "http://www.w3.org/Graphics/SVG/1.1/DTD/svg11.dtd">
<svg version="1.1" id="Layer_1" xmlns="http://www.w3.org/2000/svg" xmlns:xlink="http://www.w3.org/1999/xlink" x="0px" y="0px"
	 width="1140px" height="800px" viewBox="0 0 1140 800" enable-background="new 0 0 1140 800" xml:space="preserve">
<rect width="1140.754" height="100"/>
<g>
	<path fill="none" stroke="#FFFFFF" d="M694.938,63.143c-1.092,0-1.887,0-2.582-0.944c-0.547-0.745-0.547-1.291-0.547-2.235v-2.781
		c0-0.944,0-1.49,0.547-2.235c0.695-0.943,1.49-0.943,2.582-0.943h3.576c1.093,0,1.888,0,2.583,0.943
		c0.546,0.745,0.546,1.292,0.546,2.235v2.781c0,0.944,0,1.49-0.546,2.235c-0.695,0.944-1.49,0.944-2.583,0.944H694.938z"/>
	<path fill="none" stroke="#FFFFFF" d="M778.02,64.534c1.292,0,2.484,0.695,2.484,2.483s-1.192,2.483-2.484,2.483h-22.052V30.859
		h22.052c1.292,0,2.484,0.695,2.484,2.483s-1.192,2.483-2.484,2.483h-17.085v11.87h7.302c1.291,0,2.482,0.696,2.482,2.483
		c0,1.788-1.191,2.483-2.482,2.483h-7.302v11.871H778.02z"/>
	<path fill="none" stroke="#FFFFFF" d="M801.16,50.18l-8.842-15.198c-0.348-0.546-0.596-1.092-0.596-1.788
		c0-1.292,1.191-2.334,2.434-2.334c1.639,0,2.186,1.242,2.881,2.434l6.953,11.871l6.953-11.871c0.695-1.192,1.242-2.434,2.881-2.434
		c1.242,0,2.434,1.043,2.434,2.334c0,0.695-0.248,1.242-0.596,1.788l-8.84,15.198l8.84,15.198c0.348,0.546,0.596,1.093,0.596,1.788
		c0,1.292-1.191,2.334-2.434,2.334c-1.639,0-2.186-1.242-2.881-2.434l-6.953-11.871l-6.953,11.871
		c-0.695,1.192-1.242,2.434-2.881,2.434c-1.242,0-2.434-1.043-2.434-2.334c0-0.695,0.248-1.242,0.596-1.788L801.16,50.18z"/>
	<path fill="none" stroke="#FFFFFF" d="M832.444,67.017c0,1.589-0.695,2.483-2.483,2.483s-2.483-0.894-2.483-2.483V30.859h16.489
		c2.285,0,3.924,0.348,5.713,2.036c2.135,1.987,2.334,3.825,2.334,6.506v6.755c0,2.533-0.199,4.321-2.037,6.357
		c-1.937,2.186-3.973,2.384-6.654,2.384h-10.878V67.017z M832.444,49.932h11.026c2.93,0,3.576-0.745,3.576-3.576v-6.954
		c0-2.831-0.646-3.576-3.576-3.576h-11.026V49.932z"/>
	<path fill="none" stroke="#FFFFFF" d="M885.285,64.534c1.291,0,2.482,0.695,2.482,2.483s-1.191,2.483-2.482,2.483h-22.053V30.859
		h22.053c1.291,0,2.482,0.695,2.482,2.483s-1.191,2.483-2.482,2.483h-17.086v11.87h7.301c1.291,0,2.484,0.696,2.484,2.483
		c0,1.788-1.193,2.483-2.484,2.483h-7.301v11.871H885.285z"/>
	<path fill="none" stroke="#FFFFFF" d="M903.954,67.017c0,1.589-0.695,2.483-2.483,2.483s-2.483-0.894-2.483-2.483V30.859h16.688
		c3.924,0,7.848,2.781,7.848,7.202v3.427c0,4.668-3.875,7.053-7.848,7.053h-4.569l11.175,15.993
		c0.547,0.745,1.242,1.689,1.242,2.632c0,1.391-1.143,2.334-2.533,2.334c-0.994,0-1.639-0.596-2.186-1.391l-13.708-19.569h-1.143
		V67.017z M903.954,43.574h11.026c1.391,0,3.576-0.1,3.576-2.086v-3.427c0-1.987-2.037-2.235-3.527-2.235h-11.075V43.574z"/>
	<path fill="none" stroke="#FFFFFF" d="M949.494,64.534h7.301c1.291,0,2.482,0.695,2.482,2.483s-1.191,2.483-2.482,2.483h-19.569
		c-1.292,0-2.483-0.695-2.483-2.483s1.191-2.483,2.483-2.483h7.302V35.826h-7.302c-1.292,0-2.483-0.695-2.483-2.483
		s1.191-2.483,2.483-2.483h19.569c1.291,0,2.482,0.695,2.482,2.483s-1.191,2.483-2.482,2.483h-7.301V64.534z"/>
	<path fill="none" stroke="#FFFFFF" d="M992.549,64.534c1.292,0,2.484,0.695,2.484,2.483s-1.192,2.483-2.484,2.483h-22.052V30.859
		h22.052c1.292,0,2.484,0.695,2.484,2.483s-1.192,2.483-2.484,2.483h-17.085v11.87h7.302c1.291,0,2.482,0.696,2.482,2.483
		c0,1.788-1.191,2.483-2.482,2.483h-7.302v11.871H992.549z"/>
	<path fill="none" stroke="#FFFFFF" d="M1025.871,33.392c0-1.589,0.695-2.483,2.482-2.483c1.789,0,2.484,0.894,2.484,2.483V69.55
		h-6.557l-12.963-29.801V39.7h-0.1v27.317c0,1.589-0.695,2.483-2.483,2.483s-2.483-0.894-2.483-2.483V30.859h6.557l12.963,30.148
		h-0.05h0.099L1025.871,33.392z"/>
	<path fill="none" stroke="#FFFFFF" d="M1055.367,69.5c-3.725,0-5.86-1.49-7.449-4.718l-4.57-9.238
		c-0.844-1.688-1.341-3.278-1.341-5.215c0-2.186,0.397-3.526,1.391-5.513l4.569-9.188c1.689-3.427,3.824-4.768,7.648-4.768h8.443
		c1.094,0,2.484,0.596,2.484,2.483c0,1.788-1.342,2.483-2.484,2.483h-8.294c-2.136,0-2.483,0.199-3.427,2.086l-4.321,8.642
		c-0.646,1.341-1.043,2.235-1.043,3.775c0,1.391,0.447,2.235,1.043,3.427l4.222,8.593c0.994,2.036,1.49,2.185,3.725,2.185h8.096
		c1.094,0,2.484,0.596,2.484,2.483c0,1.788-1.342,2.483-2.484,2.483H1055.367z"/>
	<path fill="none" stroke="#FFFFFF" d="M1099.814,64.534c1.291,0,2.484,0.695,2.484,2.483s-1.193,2.483-2.484,2.483h-22.053V30.859
		h22.053c1.291,0,2.484,0.695,2.484,2.483s-1.193,2.483-2.484,2.483h-17.086v11.87h7.301c1.293,0,2.484,0.696,2.484,2.483
		c0,1.788-1.191,2.483-2.484,2.483h-7.301v11.871H1099.814z"/>
</g>
<path fill="none" stroke="#000000" stroke-width="0.8291" stroke-miterlimit="10" d="M573.768,763.411
	c0,3.026-1.688,5.479-3.768,5.479l0,0c-2.081,0-3.767-2.453-3.767-5.479V179.849c0-3.026,1.687-5.479,3.767-5.479l0,0
	c2.081,0,3.768,2.453,3.768,5.479V763.411z"/>
<circle cx="570" cy="293.947" r="7.459"/>
<circle cx="570" cy="594.583" r="7.459"/>
<g>
	<g>
		
			<line fill="none" stroke="#000000" stroke-width="3" stroke-linecap="round" stroke-miterlimit="10" x1="570" y1="181.102" x2="570" y2="181.102"/>
		
			<line fill="none" stroke="#000000" stroke-width="3" stroke-linecap="round" stroke-miterlimit="10" stroke-dasharray="0,10.0598" x1="570" y1="191.162" x2="570" y2="759.542"/>
		
			<line fill="none" stroke="#000000" stroke-width="3" stroke-linecap="round" stroke-miterlimit="10" x1="570" y1="764.572" x2="570" y2="764.572"/>
	</g>
</g>
<line fill="none" stroke="#000000" stroke-width="3" stroke-linecap="round" stroke-miterlimit="10" stroke-dasharray="0,10" x1="570" y1="594.583" x2="720.632" y2="594.583"/>
<line fill="none" stroke="#000000" stroke-width="3" stroke-linecap="round" stroke-miterlimit="10" stroke-dasharray="0,10" x1="418.684" y1="293.267" x2="569.316" y2="293.267"/>
<g>
	<line fill="none" stroke="#000000" stroke-width="6.2013" stroke-miterlimit="10" x1="1027" y1="143.772" x2="1087" y2="143.772"/>
	
		<line fill="none" stroke="#000000" stroke-width="6.2013" stroke-miterlimit="10" x1="1034.083" y1="156.591" x2="1087" y2="156.591"/>
	
		<line fill="none" stroke="#000000" stroke-width="6.2013" stroke-miterlimit="10" x1="1034.083" y1="169.409" x2="1087" y2="169.409"/>
	
		<line fill="none" stroke="#000000" stroke-width="6.2013" stroke-miterlimit="10" x1="1034.083" y1="182.228" x2="1087" y2="182.228"/>
</g>
<g>
	<circle opacity="0.6" cx="179.471" cy="771.296" r="9"/>
	<circle opacity="0.3" cx="209.471" cy="771.168" r="9"/>
	<circle opacity="0.6" cx="239.471" cy="771.042" r="9"/>
	<circle opacity="0.4" cx="269.47" cy="770.914" r="9"/>
	<circle opacity="0.5" cx="299.47" cy="770.786" r="9"/>
	<circle opacity="0.2" cx="329.469" cy="770.659" r="9"/>
	<circle opacity="0.1" cx="359.469" cy="770.532" r="9"/>
	<circle opacity="0.7" cx="389.469" cy="770.405" r="9"/>
	<circle opacity="0.3" cx="419.469" cy="770.277" r="9"/>
	<circle opacity="0.1" cx="449.468" cy="770.15" r="9"/>
	<circle opacity="0.2" cx="32.484" cy="771.919" r="9"/>
	<circle opacity="0.1" cx="62.483" cy="771.792" r="9"/>
	<circle opacity="0.7" cx="92.483" cy="771.665" r="9"/>
	<circle opacity="0.3" cx="122.483" cy="771.537" r="9"/>
	<circle opacity="0.1" cx="152.483" cy="771.41" r="9"/>
</g>
<line fill="none" stroke="#000000" stroke-width="0.4703" stroke-miterlimit="10" stroke-dasharray="9.4067,9.4067" x1="435.116" y1="431.602" x2="70.13" y2="431.602"/>
<line fill="none" stroke="#000000" stroke-width="0.4703" stroke-miterlimit="10" stroke-dasharray="9.4067,9.4067" x1="1026.087" y1="674.589" x2="661.102" y2="674.589"/>
</svg>
