<?xml version="1.0" encoding="utf-8"?>
<!-- Generator: Adobe Illustrator 16.0.0, SVG Export Plug-In . SVG Version: 6.00 Build 0)  -->
<!DOCTYPE svg PUBLIC "-//W3C//DTD SVG 1.1//EN" "http://www.w3.org/Graphics/SVG/1.1/DTD/svg11.dtd">
<svg version="1.1" id="Layer_1" xmlns="http://www.w3.org/2000/svg" xmlns:xlink="http://www.w3.org/1999/xlink" x="0px" y="0px"
	 width="100px" height="50px" viewBox="0 0 100 50" enable-background="new 0 0 100 50" xml:space="preserve">
<path d="M97.319,25c0,7.373-5.978,13.351-13.351,13.351H16.031C8.658,38.351,2.681,32.373,2.681,25l0,0
	c0-7.373,5.977-13.351,13.351-13.351h67.938C91.342,11.649,97.319,17.627,97.319,25L97.319,25z"/>
<g>
	<path fill="#FFFFFF" d="M23.436,25.08c0,4.227-2.81,6.468-6.238,6.468c-3.547,0-6.038-2.514-6.038-6.23
		c0-3.899,2.65-6.45,6.238-6.45C21.064,18.868,23.436,21.437,23.436,25.08z M13.013,25.281c0,2.624,1.554,4.974,4.285,4.974
		c2.75,0,4.304-2.314,4.304-5.102c0-2.441-1.395-4.992-4.285-4.992C14.448,20.161,13.013,22.584,13.013,25.281z"/>
	<path fill="#FFFFFF" d="M38.024,19.979c-0.438-0.255-1.156-0.474-1.953-0.474c-1.854,0-2.411,1.184-2.411,2.587v0.438h5.62v8.818
		h-1.754V23.75H33.68v7.597h-1.754V23.75h-4.065v7.597h-1.733V23.75h-1.355V22.53h1.355v-0.328c0-1.111,0.319-2.186,1.156-2.933
		c0.558-0.528,1.395-0.856,2.471-0.856c0.658,0,1.335,0.219,1.694,0.383l-0.479,1.184c-0.299-0.146-0.757-0.31-1.216-0.31
		c-0.558,0-0.956,0.182-1.255,0.474c-0.478,0.474-0.638,1.275-0.638,2.041v0.346h4.065v-0.474c0-2.332,1.515-3.844,4.225-3.844
		c0.877,0,1.874,0.237,2.392,0.564L38.024,19.979z"/>
	<path fill="#FFFFFF" d="M49.066,31.02c-0.458,0.219-1.475,0.511-2.77,0.511c-2.91,0-4.803-1.804-4.803-4.501
		c0-2.714,2.033-4.682,5.181-4.682c1.036,0,1.953,0.237,2.431,0.455l-0.398,1.239c-0.418-0.219-1.076-0.419-2.033-0.419
		c-2.212,0-3.408,1.494-3.408,3.334c0,2.04,1.435,3.298,3.348,3.298c0.996,0,1.654-0.237,2.152-0.438L49.066,31.02z"/>
	<path fill="#FFFFFF" d="M53.072,20.052c0.021,0.547-0.418,0.984-1.115,0.984c-0.618,0-1.057-0.437-1.057-0.984
		c0-0.564,0.459-1.002,1.096-1.002C52.654,19.05,53.072,19.487,53.072,20.052z M51.119,31.348V22.53h1.754v8.818H51.119z"/>
	<path fill="#FFFFFF" d="M61.124,31.348l-0.14-1.111h-0.061c-0.537,0.692-1.574,1.312-2.949,1.312c-1.952,0-2.949-1.257-2.949-2.532
		c0-2.132,2.072-3.298,5.799-3.279v-0.182c0-0.729-0.219-2.041-2.191-2.041c-0.897,0-1.834,0.255-2.511,0.656l-0.399-1.057
		c0.798-0.474,1.953-0.784,3.169-0.784c2.949,0,3.667,1.84,3.667,3.607v3.298c0,0.765,0.04,1.512,0.159,2.113H61.124z
		 M60.864,26.848c-1.913-0.036-4.085,0.273-4.085,1.985c0,1.039,0.757,1.531,1.654,1.531c1.255,0,2.053-0.729,2.331-1.477
		c0.06-0.163,0.1-0.346,0.1-0.51V26.848z"/>
	<path fill="#FFFFFF" d="M65.39,18.412h1.753v12.936H65.39V18.412z"/>
</g>
<circle fill="#FFFFFF" cx="84.031" cy="25" r="12.086"/>
</svg>
