<?xml version="1.0" encoding="utf-8"?>
<!-- Generator: Adobe Illustrator 16.0.0, SVG Export Plug-In . SVG Version: 6.00 Build 0)  -->
<!DOCTYPE svg PUBLIC "-//W3C//DTD SVG 1.1//EN" "http://www.w3.org/Graphics/SVG/1.1/DTD/svg11.dtd">
<svg version="1.1" id="Layer_1" xmlns="http://www.w3.org/2000/svg" xmlns:xlink="http://www.w3.org/1999/xlink" x="0px" y="0px"
	 width="1140px" height="800px" viewBox="0 0 1140 800" enable-background="new 0 0 1140 800" xml:space="preserve">
<rect x="-5.88" y="-3.387" fill="#F8C110" width="1151.943" height="811.459"/>
<g>
	<g enable-background="new    ">
		<path d="M68.019,108.097h-6.374l10.56-49.567h15.413c11.512,0,14.651,6.279,13.129,13.51
			c-2.283,10.465-10.56,14.747-17.505,14.747H72.586L68.019,108.097z M82.48,81.077c6.279,0,10.18-2.854,11.417-8.562
			c1.427-6.754-2.569-8.277-7.801-8.277h-8.753l-3.615,16.839H82.48z"/>
		<path d="M154.689,83.361c-0.856,3.996-5.708,25.592-23.024,25.592c-7.991,0-16.364-5.708-12.178-25.592
			c4.187-19.789,14.937-25.688,23.119-25.688C150.503,57.673,158.97,63.381,154.689,83.361z M126.147,83.361
			c-1.522,7.23-2.854,19.598,6.754,19.598c9.609,0,13.605-12.368,15.127-19.598c1.617-7.326,2.854-19.694-6.755-19.694
			C131.665,63.667,127.765,76.035,126.147,83.361z"/>
		<path d="M185.131,58.529h16.84c8.277,0,13.985,3.901,11.987,13.51c-1.332,6.089-6.66,12.083-13.034,13.89l7.896,20.074
			l-6.279,3.33l-7.896-22.453h-9.229l-4.472,21.216h-6.374L185.131,58.529z M195.026,81.172c6.279,0,11.036-3.52,12.273-9.133
			c0.951-4.471-1.046-7.801-6.755-7.801h-10.275l-3.615,16.935H195.026z"/>
		<path d="M252.298,64.238h-13.7l1.237-5.708h33.489l-1.237,5.708h-13.415l-9.323,43.859h-6.375L252.298,64.238z"/>
		<path d="M301.863,58.529h31.206l-1.237,5.708h-24.831l-3.14,14.842h20.835l-1.237,5.708h-20.835l-4.947,23.309h-6.375
			L301.863,58.529z"/>
		<path d="M383.015,83.361c-0.856,3.996-5.708,25.592-23.024,25.592c-7.991,0-16.364-5.708-12.178-25.592
			C352,63.572,362.75,57.673,370.932,57.673C378.829,57.673,387.296,63.381,383.015,83.361z M354.474,83.361
			c-1.522,7.23-2.854,19.598,6.754,19.598c9.609,0,13.605-12.368,15.127-19.598c1.617-7.326,2.854-19.694-6.755-19.694
			C359.991,63.667,356.091,76.035,354.474,83.361z"/>
		<path d="M415.456,58.529h6.375l-9.324,43.859h25.973l-1.237,5.708h-32.347L415.456,58.529z"/>
		<path d="M465.402,102.388h6.945l8.087-38.15h-6.945l1.237-5.708h20.359l-1.237,5.708h-7.04l-8.087,38.15h7.04l-1.237,5.708
			h-20.359L465.402,102.388z"/>
		<path d="M554.26,83.361c-0.856,3.996-5.708,25.592-23.024,25.592c-7.991,0-16.364-5.708-12.178-25.592
			c4.187-19.789,14.937-25.688,23.119-25.688C550.073,57.673,558.541,63.381,554.26,83.361z M525.718,83.361
			c-1.522,7.23-2.854,19.598,6.755,19.598c9.609,0,13.605-12.368,15.127-19.598c1.617-7.326,2.854-19.694-6.755-19.694
			C531.236,63.667,527.335,76.035,525.718,83.361z"/>
		<path d="M587.081,94.016h8.753l-2.95,14.081h-8.752L587.081,94.016z"/>
	</g>
	<g enable-background="new    ">
		<path fill="none" stroke="#000000" d="M65.579,104.513h-6.374l10.56-49.567h15.413c11.512,0,14.651,6.279,13.129,13.51
			c-2.283,10.465-10.56,14.747-17.505,14.747H70.146L65.579,104.513z M80.04,77.493c6.279,0,10.18-2.854,11.417-8.562
			c1.427-6.754-2.569-8.277-7.801-8.277h-8.753l-3.615,16.839H80.04z"/>
		<path fill="none" stroke="#000000" d="M152.249,79.777c-0.856,3.996-5.708,25.592-23.024,25.592
			c-7.991,0-16.364-5.708-12.178-25.592c4.187-19.789,14.937-25.688,23.119-25.688C148.062,54.089,156.53,59.797,152.249,79.777z
			 M123.707,79.777c-1.522,7.23-2.854,19.598,6.754,19.598c9.609,0,13.605-12.368,15.127-19.598
			c1.617-7.326,2.854-19.694-6.755-19.694C129.225,60.083,125.324,72.451,123.707,79.777z"/>
		<path fill="none" stroke="#000000" d="M182.691,54.945h16.84c8.277,0,13.985,3.901,11.987,13.51
			c-1.332,6.089-6.66,12.083-13.034,13.89l7.896,20.074l-6.279,3.33l-7.896-22.453h-9.229l-4.472,21.216h-6.374L182.691,54.945z
			 M192.585,77.588c6.279,0,11.036-3.52,12.273-9.133c0.951-4.471-1.046-7.801-6.755-7.801h-10.275l-3.615,16.935H192.585z"/>
		<path fill="none" stroke="#000000" d="M249.857,60.654h-13.7l1.237-5.708h33.489l-1.237,5.708h-13.415l-9.323,43.859h-6.375
			L249.857,60.654z"/>
		<path fill="none" stroke="#000000" d="M299.423,54.945h31.206l-1.237,5.708h-24.831l-3.14,14.842h20.835l-1.237,5.708h-20.835
			l-4.947,23.309h-6.375L299.423,54.945z"/>
		<path fill="none" stroke="#000000" d="M380.575,79.777c-0.856,3.996-5.708,25.592-23.024,25.592
			c-7.991,0-16.364-5.708-12.178-25.592c4.187-19.789,14.937-25.688,23.119-25.688C376.389,54.089,384.856,59.797,380.575,79.777z
			 M352.033,79.777c-1.522,7.23-2.854,19.598,6.754,19.598c9.609,0,13.605-12.368,15.127-19.598
			c1.617-7.326,2.854-19.694-6.755-19.694C357.551,60.083,353.65,72.451,352.033,79.777z"/>
		<path fill="none" stroke="#000000" d="M413.015,54.945h6.375l-9.324,43.859h25.973l-1.237,5.708h-32.347L413.015,54.945z"/>
		<path fill="none" stroke="#000000" d="M462.961,98.804h6.945l8.087-38.15h-6.945l1.237-5.708h20.359l-1.237,5.708h-7.04
			l-8.087,38.15h7.04l-1.237,5.708h-20.359L462.961,98.804z"/>
		<path fill="none" stroke="#000000" d="M551.819,79.777c-0.856,3.996-5.708,25.592-23.024,25.592
			c-7.991,0-16.364-5.708-12.178-25.592c4.187-19.789,14.937-25.688,23.119-25.688C547.633,54.089,556.101,59.797,551.819,79.777z
			 M523.277,79.777c-1.522,7.23-2.854,19.598,6.755,19.598c9.609,0,13.605-12.368,15.127-19.598
			c1.617-7.326,2.854-19.694-6.755-19.694C528.795,60.083,524.895,72.451,523.277,79.777z"/>
		<path fill="none" stroke="#000000" d="M584.641,90.432h8.753l-2.95,14.081h-8.752L584.641,90.432z"/>
	</g>
</g>
<g enable-background="new    ">
	<path fill="none" stroke="#000000" stroke-width="0.5138" d="M46.129,702.973l6.888-18.011h1.07L47.2,702.973H46.129z"/>
	<path fill="none" stroke="#000000" stroke-width="0.5138" d="M68.909,700.018c-1.303,1.536-2.676,2.536-4.561,2.536
		c-3.537,0-3.956-3.257-3.328-6.259c1.024-4.841,3.909-6.283,5.864-6.283c1.885,0,2.769,0.978,3.281,2.583l-1.583,0.722
		c-0.302-0.978-0.814-1.839-2.001-1.839c-2.42,0-3.537,2.933-3.933,4.794c-0.396,1.885-0.582,4.816,1.885,4.816
		c1.419,0,2.327-0.86,3.281-1.954L68.909,700.018z"/>
	<path fill="none" stroke="#000000" stroke-width="0.5138" d="M76.586,699.04l-1.908,3.607l-1.419-0.559l6.353-11.867h2.001
		l1.28,11.867l-1.652,0.559l-0.349-3.607H76.586z M80.217,692.036l-2.909,5.608h3.444L80.217,692.036z"/>
	<path fill="none" stroke="#000000" stroke-width="0.5138" d="M92.339,690.222l-1.769,8.261c-0.373,1.768-0.046,2.605,1.559,2.605
		c1.955,0,2.56-0.86,2.932-2.605l1.768-8.261h1.559l-1.931,9.005c-0.349,1.605-1.838,3.327-4.514,3.327
		c-2.63,0-3.444-1.651-3.072-3.42l1.908-8.912H92.339z"/>
	<path fill="none" stroke="#000000" stroke-width="0.5138" d="M104.228,698.505c-0.023,1.489,0.465,2.583,2.094,2.583
		c1.28,0,2.443-0.698,2.723-2.048c0.326-1.489-0.861-1.861-1.931-2.35c-1.629-0.745-3.188-1.21-2.699-3.49
		c0.418-2.048,2.327-3.188,4.235-3.188c2.024,0,2.955,1.164,3.048,3.049l-1.583,0.441c-0.023-1.187-0.488-2.024-1.815-2.024
		c-1,0-2.071,0.512-2.304,1.605c-0.256,1.141,0.373,1.489,1.21,1.885l2.351,1.141c0.954,0.605,1.35,1.582,1.07,2.839
		c-0.489,2.304-2.374,3.606-4.607,3.606c-2.257,0-3.374-1.442-3.281-3.606L104.228,698.505z"/>
	<path fill="none" stroke="#000000" stroke-width="0.5138" d="M119.166,690.222h7.562l-0.302,1.396h-6.004l-0.768,3.63h4.956
		l-0.302,1.396h-4.957l-0.907,4.305h6.003l-0.303,1.396h-7.562L119.166,690.222z"/>
	<path fill="none" stroke="#000000" stroke-width="0.5138" d="M149.367,691.617h-3.351l0.302-1.396h8.191l-0.302,1.396h-3.281
		l-2.28,10.728h-1.559L149.367,691.617z"/>
	<path fill="none" stroke="#000000" stroke-width="0.5138" d="M160.419,690.222h1.559l-1.07,5.025h4.793l1.07-5.025h1.559
		l-2.583,12.123h-1.559l1.21-5.701h-4.794l-1.21,5.701h-1.559L160.419,690.222z"/>
	<path fill="none" stroke="#000000" stroke-width="0.5138" d="M175.008,690.222h7.562l-0.302,1.396h-6.004l-0.768,3.63h4.956
		l-0.302,1.396h-4.957l-0.907,4.305h6.003l-0.303,1.396h-7.562L175.008,690.222z"/>
	<path fill="none" stroke="#000000" stroke-width="0.5138" d="M203.371,690.222h7.633l-0.303,1.396h-6.073l-0.768,3.63h5.096
		l-0.303,1.396h-5.096l-1.21,5.701h-1.559L203.371,690.222z"/>
	<path fill="none" stroke="#000000" stroke-width="0.5138" d="M217.983,690.222l-1.769,8.261c-0.373,1.768-0.046,2.605,1.559,2.605
		c1.955,0,2.56-0.86,2.932-2.605l1.769-8.261h1.559l-1.931,9.005c-0.349,1.605-1.838,3.327-4.514,3.327
		c-2.63,0-3.444-1.651-3.072-3.42l1.908-8.912H217.983z"/>
	<path fill="none" stroke="#000000" stroke-width="0.5138" d="M233.13,691.617h-3.351l0.302-1.396h8.191l-0.302,1.396h-3.281
		l-2.28,10.728h-1.559L233.13,691.617z"/>
	<path fill="none" stroke="#000000" stroke-width="0.5138" d="M245.904,690.222l-1.769,8.261c-0.373,1.768-0.046,2.605,1.559,2.605
		c1.955,0,2.56-0.86,2.932-2.605l1.769-8.261h1.559l-1.931,9.005c-0.349,1.605-1.838,3.327-4.514,3.327
		c-2.63,0-3.444-1.651-3.072-3.42l1.908-8.912H245.904z"/>
	<path fill="none" stroke="#000000" stroke-width="0.5138" d="M258.584,690.222h4.119c2.024,0,3.42,0.954,2.932,3.304
		c-0.326,1.489-1.628,2.955-3.188,3.397l1.931,4.91l-1.536,0.814l-1.932-5.492h-2.257l-1.094,5.189h-1.559L258.584,690.222z
		 M261.004,695.76c1.536,0,2.699-0.861,3.002-2.234c0.232-1.094-0.256-1.908-1.652-1.908h-2.513l-0.884,4.143H261.004z"/>
	<path fill="none" stroke="#000000" stroke-width="0.5138" d="M272.731,690.222h7.562l-0.302,1.396h-6.004l-0.768,3.63h4.956
		l-0.302,1.396h-4.957l-0.907,4.305h6.003l-0.303,1.396h-7.562L272.731,690.222z"/>
	<path fill="none" stroke="#000000" stroke-width="0.5138" d="M47.921,728.869h1.699l1.978-9.331h-1.699l0.302-1.396h4.98
		l-0.303,1.396h-1.722l-1.978,9.331h1.722l-0.303,1.396h-4.979L47.921,728.869z"/>
	<path fill="none" stroke="#000000" stroke-width="0.5138" d="M62.347,726.426c-0.023,1.489,0.465,2.583,2.094,2.583
		c1.28,0,2.443-0.698,2.723-2.048c0.326-1.489-0.861-1.861-1.931-2.35c-1.629-0.745-3.188-1.21-2.699-3.49
		c0.418-2.048,2.327-3.188,4.235-3.188c2.024,0,2.955,1.163,3.048,3.049l-1.583,0.441c-0.023-1.187-0.488-2.024-1.815-2.024
		c-1,0-2.071,0.512-2.304,1.605c-0.256,1.141,0.373,1.489,1.21,1.885l2.351,1.141c0.954,0.605,1.35,1.582,1.07,2.839
		c-0.489,2.304-2.374,3.606-4.607,3.606c-2.257,0-3.374-1.442-3.281-3.606L62.347,726.426z"/>
	<path fill="none" stroke="#000000" stroke-width="0.5138" d="M91.687,718.143h7.633l-0.303,1.396h-6.073l-0.768,3.63h5.096
		l-0.303,1.396h-5.096l-1.21,5.701h-1.559L91.687,718.143z"/>
	<path fill="none" stroke="#000000" stroke-width="0.5138" d="M111.535,724.216c-0.209,0.977-1.396,6.259-5.631,6.259
		c-1.955,0-4.002-1.396-2.979-6.259c1.023-4.841,3.653-6.283,5.654-6.283C110.511,717.933,112.582,719.329,111.535,724.216z
		 M104.554,724.216c-0.372,1.769-0.698,4.793,1.652,4.793s3.328-3.024,3.7-4.793c0.396-1.792,0.698-4.817-1.652-4.817
		S104.95,722.424,104.554,724.216z"/>
	<path fill="none" stroke="#000000" stroke-width="0.5138" d="M118.98,718.143h4.119c2.024,0,3.42,0.953,2.932,3.304
		c-0.326,1.489-1.628,2.955-3.188,3.397l1.931,4.91l-1.536,0.814l-1.932-5.492h-2.257l-1.094,5.189h-1.559L118.98,718.143z
		 M121.4,723.681c1.536,0,2.699-0.861,3.002-2.234c0.232-1.094-0.256-1.908-1.652-1.908h-2.513l-0.884,4.143H121.4z"/>
	<path fill="none" stroke="#000000" stroke-width="0.5138" d="M147.203,720.446h-0.046l-2.397,9.819h-1.652l3.071-12.123h2.048
		l1.07,5.259l3.304-5.259h2.048l-2.094,12.123h-1.652l1.792-9.819h-0.046l-4.096,6.398L147.203,720.446z"/>
	<path fill="none" stroke="#000000" stroke-width="0.5138" d="M160.349,726.961l-1.908,3.607l-1.419-0.559l6.353-11.867h2.001
		l1.28,11.867l-1.652,0.559l-0.349-3.607H160.349z M163.979,719.957l-2.909,5.608h3.444L163.979,719.957z"/>
	<path fill="none" stroke="#000000" stroke-width="0.5138" d="M175.589,723.308h0.582l5.329-5.468l0.978,0.931l-5.12,5.096
		l3.514,5.701l-1.396,1.001l-3.63-5.98h-0.536l-1.21,5.678h-1.559l2.583-12.123h1.559L175.589,723.308z"/>
	<path fill="none" stroke="#000000" stroke-width="0.5138" d="M187.525,728.869h1.699l1.978-9.331h-1.699l0.302-1.396h4.98
		l-0.303,1.396h-1.722l-1.978,9.331h1.722l-0.303,1.396h-4.979L187.525,728.869z"/>
	<path fill="none" stroke="#000000" stroke-width="0.5138" d="M202.208,718.143h1.931l2.513,10.215l0.07-0.047l0.535-3.141
		l1.489-7.027h1.559l-2.583,12.123h-1.931l-2.537-10.216l-0.046,0.047l-0.535,3.165l-1.489,7.004h-1.559L202.208,718.143z"/>
	<path fill="none" stroke="#000000" stroke-width="0.5138" d="M221.962,729.148c-1.164,0.791-2.769,1.326-4.002,1.326
		c-3.56,0-3.886-3.304-3.258-6.282c0.628-2.932,2.42-6.26,5.887-6.26c1.629,0,2.839,0.954,3.374,2.327l-1.489,0.861
		c-0.396-0.978-1.117-1.723-2.304-1.723c-2.396,0-3.444,3.002-3.839,4.841c-0.396,1.885-0.605,4.77,1.838,4.77
		c0.791,0,1.629-0.209,2.397-0.628l0.675-3.188h-2.909l0.302-1.396h4.468L221.962,729.148z"/>
	<path fill="none" stroke="#000000" stroke-width="0.5138" d="M233.642,726.821l-0.209,1.048c-0.303,1.559-1.815,3.024-3.397,3.77
		l-0.256-1.28c0.907-0.512,1.256-1.303,1.419-2.117l0.302-1.42H233.642z"/>
	<path fill="none" stroke="#000000" stroke-width="0.5138" d="M48.643,746.064h1.931l2.513,10.215l0.07-0.047l0.535-3.141
		l1.489-7.027h1.559l-2.583,12.123h-1.931l-2.537-10.216l-0.046,0.047l-0.535,3.165l-1.489,7.004H46.06L48.643,746.064z"/>
	<path fill="none" stroke="#000000" stroke-width="0.5138" d="M69.653,752.138c-0.209,0.977-1.396,6.259-5.631,6.259
		c-1.955,0-4.002-1.396-2.979-6.259c1.023-4.841,3.653-6.283,5.654-6.283C68.63,745.854,70.701,747.251,69.653,752.138z
		 M62.673,752.138c-0.373,1.769-0.698,4.793,1.652,4.793s3.328-3.024,3.7-4.793c0.396-1.792,0.698-4.817-1.652-4.817
		S63.068,750.346,62.673,752.138z"/>
	<path fill="none" stroke="#000000" stroke-width="0.5138" d="M79.565,747.46h-3.351l0.302-1.396h8.191l-0.302,1.396h-3.281
		l-2.28,10.728h-1.559L79.565,747.46z"/>
	<path fill="none" stroke="#000000" stroke-width="0.5138" d="M104.019,753.673c-0.582,2.374-0.116,3.258,1.489,3.258
		c1.583,0,2.583-0.954,2.886-2.42l1.792-8.446h1.559l-1.861,8.749c-0.373,1.722-1.978,3.583-4.677,3.583
		c-2.606,0-3.421-1.489-2.746-4.724H104.019z"/>
	<path fill="none" stroke="#000000" stroke-width="0.5138" d="M120.26,746.064l-1.769,8.261c-0.373,1.768-0.046,2.605,1.559,2.605
		c1.955,0,2.56-0.86,2.932-2.605l1.768-8.261h1.559l-1.931,9.005c-0.349,1.605-1.838,3.327-4.514,3.327
		c-2.63,0-3.444-1.651-3.072-3.42l1.908-8.912H120.26z"/>
	<path fill="none" stroke="#000000" stroke-width="0.5138" d="M132.149,754.348c-0.023,1.489,0.465,2.583,2.094,2.583
		c1.28,0,2.443-0.698,2.723-2.048c0.326-1.489-0.861-1.861-1.931-2.35c-1.629-0.745-3.188-1.21-2.699-3.49
		c0.418-2.048,2.327-3.188,4.235-3.188c2.024,0,2.955,1.163,3.048,3.049l-1.583,0.441c-0.023-1.187-0.488-2.024-1.815-2.024
		c-1,0-2.071,0.512-2.304,1.605c-0.256,1.141,0.373,1.489,1.21,1.885l2.351,1.141c0.954,0.605,1.35,1.582,1.07,2.839
		c-0.489,2.304-2.374,3.606-4.607,3.606c-2.257,0-3.374-1.442-3.281-3.606L132.149,754.348z"/>
	<path fill="none" stroke="#000000" stroke-width="0.5138" d="M149.367,747.46h-3.351l0.302-1.396h8.191l-0.302,1.396h-3.281
		l-2.28,10.728h-1.559L149.367,747.46z"/>
	<path fill="none" stroke="#000000" stroke-width="0.5138" d="M175.45,746.064h7.633l-0.303,1.396h-6.073l-0.768,3.63h5.096
		l-0.303,1.396h-5.096l-1.21,5.701h-1.559L175.45,746.064z"/>
	<path fill="none" stroke="#000000" stroke-width="0.5138" d="M195.297,752.138c-0.209,0.977-1.396,6.259-5.631,6.259
		c-1.955,0-4.002-1.396-2.979-6.259c1.023-4.841,3.653-6.283,5.654-6.283C194.273,745.854,196.345,747.251,195.297,752.138z
		 M188.316,752.138c-0.372,1.769-0.698,4.793,1.652,4.793s3.328-3.024,3.7-4.793c0.396-1.792,0.698-4.817-1.652-4.817
		S188.712,750.346,188.316,752.138z"/>
	<path fill="none" stroke="#000000" stroke-width="0.5138" d="M202.743,746.064h4.119c2.024,0,3.42,0.953,2.932,3.304
		c-0.326,1.489-1.628,2.955-3.188,3.397l1.931,4.91l-1.536,0.814l-1.932-5.492h-2.257l-1.094,5.189h-1.559L202.743,746.064z
		 M205.163,751.603c1.536,0,2.699-0.861,3.002-2.234c0.232-1.094-0.256-1.908-1.652-1.908h-2.513l-0.884,4.143H205.163z"/>
	<path fill="none" stroke="#000000" stroke-width="0.5138" d="M233.13,747.46h-3.351l0.302-1.396h8.191l-0.302,1.396h-3.281
		l-2.28,10.728h-1.559L233.13,747.46z"/>
	<path fill="none" stroke="#000000" stroke-width="0.5138" d="M244.112,754.883l-1.908,3.607l-1.419-0.559l6.353-11.867h2.001
		l1.28,11.867l-1.652,0.559l-0.349-3.607H244.112z M247.742,747.879l-2.909,5.608h3.444L247.742,747.879z"/>
	<path fill="none" stroke="#000000" stroke-width="0.5138" d="M259.073,746.064h1.559l-2.28,10.727h6.353l-0.302,1.396h-7.912
		L259.073,746.064z"/>
	<path fill="none" stroke="#000000" stroke-width="0.5138" d="M273.312,751.229h0.582l5.329-5.468l0.978,0.931l-5.12,5.096
		l3.514,5.701l-1.396,1.001l-3.63-5.98h-0.535l-1.21,5.678h-1.559l2.583-12.123h1.559L273.312,751.229z"/>
	<path fill="none" stroke="#000000" stroke-width="0.5138" d="M285.249,756.791h1.699l1.978-9.331h-1.699l0.303-1.396h4.979
		l-0.303,1.396h-1.722l-1.978,9.331h1.722l-0.303,1.396h-4.979L285.249,756.791z"/>
	<path fill="none" stroke="#000000" stroke-width="0.5138" d="M299.931,746.064h1.931l2.513,10.215l0.07-0.047l0.535-3.141
		l1.489-7.027h1.559l-2.583,12.123h-1.931l-2.537-10.216l-0.046,0.047l-0.535,3.165l-1.489,7.004h-1.559L299.931,746.064z"/>
	<path fill="none" stroke="#000000" stroke-width="0.5138" d="M319.685,757.07c-1.164,0.791-2.769,1.326-4.002,1.326
		c-3.56,0-3.886-3.304-3.258-6.282c0.628-2.932,2.42-6.26,5.887-6.26c1.629,0,2.839,0.954,3.374,2.327l-1.489,0.861
		c-0.396-0.978-1.117-1.723-2.304-1.723c-2.396,0-3.444,3.002-3.839,4.841c-0.396,1.885-0.605,4.77,1.838,4.77
		c0.791,0,1.629-0.209,2.397-0.628l0.675-3.188h-2.909l0.302-1.396h4.468L319.685,757.07z"/>
	<path fill="none" stroke="#000000" stroke-width="0.5138" d="M341.835,754.883l-1.908,3.607l-1.419-0.559l6.353-11.867h2.001
		l1.28,11.867l-1.652,0.559l-0.349-3.607H341.835z M345.465,747.879l-2.909,5.608H346L345.465,747.879z"/>
	<path fill="none" stroke="#000000" stroke-width="0.5138" d="M353.096,758.188l0.303-1.396h1.256l1.978-9.331h-1.257l0.303-1.396
		h3.816c3.071,0,4.142,1.163,3.7,3.234c-0.209,1.047-0.861,1.978-1.908,2.489c1.257,0.419,1.745,1.56,1.466,2.933
		c-0.465,2.187-2.187,3.467-4.724,3.467H353.096z M358.029,756.791c1.373,0,2.723-0.302,3.072-1.954
		c0.256-1.21-0.326-2.188-1.815-2.188h-2.188l-0.884,4.142H358.029z M359.123,751.253c1.35,0,2.21-0.86,2.443-1.954
		c0.302-1.443-0.628-1.839-1.722-1.839h-1.652l-0.814,3.793H359.123z"/>
	<path fill="none" stroke="#000000" stroke-width="0.5138" d="M376.783,752.138c-0.209,0.977-1.396,6.259-5.631,6.259
		c-1.955,0-4.002-1.396-2.979-6.259c1.023-4.841,3.653-6.283,5.654-6.283C375.76,745.854,377.831,747.251,376.783,752.138z
		 M369.803,752.138c-0.373,1.769-0.698,4.793,1.652,4.793s3.328-3.024,3.7-4.793c0.396-1.792,0.698-4.817-1.652-4.817
		S370.198,750.346,369.803,752.138z"/>
	<path fill="none" stroke="#000000" stroke-width="0.5138" d="M385.508,746.064l-1.769,8.261c-0.373,1.768-0.046,2.605,1.559,2.605
		c1.955,0,2.56-0.86,2.932-2.605l1.769-8.261h1.559l-1.931,9.005c-0.349,1.605-1.838,3.327-4.514,3.327
		c-2.63,0-3.444-1.651-3.072-3.42l1.908-8.912H385.508z"/>
	<path fill="none" stroke="#000000" stroke-width="0.5138" d="M400.655,747.46h-3.351l0.302-1.396h8.191l-0.302,1.396h-3.281
		l-2.28,10.728h-1.559L400.655,747.46z"/>
	<path fill="none" stroke="#000000" stroke-width="0.5138" d="M412.731,754.743h2.141l-0.721,3.444h-2.141L412.731,754.743z"/>
	<path fill="none" stroke="#000000" stroke-width="0.5138" d="M423.062,758.815l6.888-18.011h1.07l-6.888,18.011H423.062z"/>
</g>
<polygon fill="none" stroke="#000000" stroke-miterlimit="10" points="1106.854,60.775 1088.443,60.775 1088.443,42.366 
	1075.125,42.366 1075.125,60.775 1056.715,60.775 1056.715,74.093 1075.125,74.093 1075.125,92.503 1088.443,92.503 
	1088.443,74.093 1106.854,74.093 "/>
<rect x="1056.715" y="748.502" fill="none" stroke="#000000" stroke-miterlimit="10" width="50.139" height="13.318"/>
<g>
	<g opacity="0.4">
		<polygon points="200.923,292.591 187.434,292.591 179.862,354.258 193.352,354.258 		"/>
		<polygon points="209.284,224.501 195.794,224.501 188.222,286.167 201.712,286.167 		"/>
		<polygon points="216.974,161.871 203.484,161.871 196.583,218.077 210.072,218.077 		"/>
		<polygon points="270.074,475.641 225.461,455.062 223.877,467.959 179.391,467.959 184.202,428.773 170.712,428.773 
			165.901,467.959 164.126,482.412 177.616,482.412 222.103,482.412 220.407,496.221 		"/>
		<polygon points="192.563,360.683 179.073,360.683 171.501,422.35 184.991,422.35 		"/>
	</g>
	<g>
		<polygon fill="none" stroke="#000000" stroke-miterlimit="10" points="197.312,288.021 183.822,288.021 176.25,349.688 
			189.74,349.688 		"/>
		<polygon fill="none" stroke="#000000" stroke-miterlimit="10" points="205.672,219.931 192.182,219.931 184.611,281.598 
			198.1,281.598 		"/>
		<polygon fill="none" stroke="#000000" stroke-miterlimit="10" points="213.362,157.302 199.872,157.302 192.971,213.507 
			206.461,213.507 		"/>
		<polygon fill="none" stroke="#000000" stroke-miterlimit="10" points="266.462,471.072 221.849,450.492 220.266,463.389 
			175.779,463.389 180.591,424.203 167.101,424.203 162.29,463.389 160.515,477.842 174.004,477.842 218.491,477.842 
			216.795,491.65 		"/>
		<polygon fill="none" stroke="#000000" stroke-miterlimit="10" points="188.951,356.112 175.461,356.112 167.89,417.778 
			181.379,417.778 		"/>
	</g>
</g>
</svg>
