<?xml version="1.0" encoding="utf-8"?>
<!-- Generator: Adobe Illustrator 16.0.0, SVG Export Plug-In . SVG Version: 6.00 Build 0)  -->
<!DOCTYPE svg PUBLIC "-//W3C//DTD SVG 1.1//EN" "http://www.w3.org/Graphics/SVG/1.1/DTD/svg11.dtd">
<svg version="1.1" id="Layer_1" xmlns="http://www.w3.org/2000/svg" xmlns:xlink="http://www.w3.org/1999/xlink" x="0px" y="0px"
	 width="100px" height="50px" viewBox="0 0 100 50" enable-background="new 0 0 100 50" xml:space="preserve">
<path d="M97.319,25c0,7.373-5.978,13.351-13.351,13.351H16.031C8.658,38.351,2.681,32.373,2.681,25l0,0
	c0-7.373,5.977-13.351,13.351-13.351h67.938C91.342,11.649,97.319,17.627,97.319,25L97.319,25z"/>
<g>
	<path fill="#FFFFFF" d="M32.066,17.851c0.897-0.153,2.072-0.285,3.567-0.285c1.837,0,3.183,0.438,4.038,1.226
		c0.791,0.7,1.26,1.772,1.26,3.085c0,1.335-0.384,2.385-1.111,3.151c-0.982,1.073-2.585,1.62-4.4,1.62
		c-0.556,0-1.068-0.022-1.496-0.132v5.908h-1.858V17.851z M33.924,24.962c0.406,0.109,0.918,0.153,1.538,0.153
		c2.243,0,3.61-1.116,3.61-3.151c0-1.948-1.346-2.889-3.396-2.889c-0.812,0-1.431,0.066-1.752,0.153V24.962z"/>
	<path fill="#FFFFFF" d="M43.027,25.137c0-1.247-0.021-2.319-0.085-3.304h1.645l0.064,2.079h0.085
		c0.47-1.422,1.602-2.319,2.862-2.319c0.214,0,0.363,0.022,0.534,0.065v1.816c-0.192-0.044-0.385-0.066-0.641-0.066
		c-1.325,0-2.265,1.028-2.521,2.473c-0.042,0.262-0.085,0.569-0.085,0.897v5.646h-1.858V25.137z"/>
	<path fill="#FFFFFF" d="M52.193,18.857c0.021,0.657-0.449,1.182-1.197,1.182c-0.662,0-1.132-0.525-1.132-1.182
		c0-0.678,0.492-1.203,1.175-1.203C51.744,17.654,52.193,18.179,52.193,18.857z M50.1,32.424v-10.59h1.88v10.59H50.1z"/>
	<path fill="#FFFFFF" d="M55.826,21.833l2.029,5.952c0.342,0.963,0.619,1.838,0.833,2.713h0.063c0.235-0.875,0.535-1.75,0.877-2.713
		l2.008-5.952h1.965l-4.059,10.59h-1.795l-3.93-10.59H55.826z"/>
	<path fill="#FFFFFF" d="M71.017,32.424l-0.149-1.335h-0.064c-0.576,0.832-1.688,1.575-3.162,1.575c-2.093,0-3.161-1.51-3.161-3.041
		c0-2.561,2.222-3.96,6.217-3.938v-0.219c0-0.875-0.235-2.451-2.351-2.451c-0.961,0-1.965,0.306-2.691,0.788l-0.427-1.269
		c0.854-0.569,2.093-0.941,3.396-0.941c3.161,0,3.931,2.21,3.931,4.333v3.96c0,0.919,0.043,1.816,0.171,2.538H71.017z M70.738,27.02
		c-2.051-0.044-4.379,0.328-4.379,2.385c0,1.247,0.812,1.838,1.773,1.838c1.346,0,2.2-0.875,2.499-1.772
		c0.064-0.196,0.106-0.416,0.106-0.612V27.02z"/>
	<path fill="#FFFFFF" d="M77.771,18.792v3.042h2.691v1.466h-2.691v5.711c0,1.312,0.362,2.057,1.409,2.057
		c0.492,0,0.854-0.065,1.09-0.132l0.086,1.444c-0.363,0.153-0.94,0.263-1.667,0.263c-0.876,0-1.581-0.284-2.029-0.81
		c-0.534-0.569-0.727-1.51-0.727-2.757v-5.777h-1.602v-1.466h1.602v-2.539L77.771,18.792z"/>
	<path fill="#FFFFFF" d="M83.496,27.479c0.043,2.604,1.666,3.676,3.546,3.676c1.346,0,2.157-0.24,2.862-0.547l0.32,1.379
		c-0.662,0.307-1.794,0.656-3.439,0.656c-3.183,0-5.084-2.145-5.084-5.339c0-3.195,1.838-5.711,4.85-5.711
		c3.375,0,4.272,3.042,4.272,4.989c0,0.394-0.043,0.7-0.064,0.896H83.496z M89.008,26.101c0.021-1.226-0.492-3.129-2.606-3.129
		c-1.901,0-2.734,1.794-2.884,3.129H89.008z"/>
</g>
<circle fill="#FFFFFF" cx="16.031" cy="25" r="12.732"/>
</svg>
