<?xml version="1.0" encoding="utf-8"?>
<!-- Generator: Adobe Illustrator 16.0.0, SVG Export Plug-In . SVG Version: 6.00 Build 0)  -->
<!DOCTYPE svg PUBLIC "-//W3C//DTD SVG 1.1//EN" "http://www.w3.org/Graphics/SVG/1.1/DTD/svg11.dtd">
<svg version="1.1" id="Layer_1" xmlns="http://www.w3.org/2000/svg" xmlns:xlink="http://www.w3.org/1999/xlink" x="0px" y="0px"
	 width="200px" height="70px" viewBox="0 0 200 70" enable-background="new 0 0 200 70" xml:space="preserve">
<g>
	<g>
		<path fill="#333333" d="M36.879,44.533c-0.687,0.473-1.409,0.781-2.402,0.781c-1.862,0-2.083-1.004-1.752-1.929
			c0.539-1.492,2.059-1.937,3.087-1.937c0.993,0,1.458,0.301,1.728,0.796l-0.833,0.223c-0.159-0.302-0.429-0.567-1.054-0.567
			c-1.274,0-1.862,0.904-2.071,1.478c-0.208,0.581-0.306,1.484,0.993,1.484c0.748,0,1.225-0.265,1.728-0.602L36.879,44.533z"/>
		<path fill="#333333" d="M41.146,44.819h0.895l1.042-2.875h-0.895l0.16-0.431h2.622l-0.16,0.431h-0.907l-1.042,2.875h0.907
			l-0.159,0.431h-2.622L41.146,44.819z"/>
		<path fill="#333333" d="M49.506,44.231l-1.004,1.111l-0.748-0.172l3.345-3.657h1.054l0.674,3.657l-0.87,0.172l-0.184-1.111H49.506
			z M51.418,42.073l-1.532,1.729H51.7L51.418,42.073z"/>
		<path fill="#333333" d="M61.175,43.386c-0.11,0.301-0.735,1.929-2.965,1.929c-1.029,0-2.107-0.431-1.568-1.929
			c0.539-1.492,1.924-1.937,2.978-1.937C60.636,41.449,61.727,41.879,61.175,43.386z M57.499,43.386
			c-0.196,0.545-0.367,1.477,0.87,1.477c1.238,0,1.752-0.932,1.948-1.477c0.208-0.553,0.368-1.485-0.87-1.485
			C58.21,41.9,57.708,42.833,57.499,43.386z"/>
		<path fill="#333333" d="M69.302,41.42l0.674,0.237l-2.843,2.151l-0.527,1.441h-0.821l0.527-1.441l-1.287-2.151l0.87-0.237
			l1.004,1.923L69.302,41.42z"/>
		<path fill="#333333" d="M74.354,41.514l-0.932,2.546c-0.196,0.545-0.024,0.803,0.821,0.803c1.029,0,1.348-0.265,1.544-0.803
			l0.931-2.546h0.821l-1.017,2.775c-0.184,0.495-0.968,1.025-2.377,1.025c-1.385,0-1.813-0.509-1.617-1.054l1.004-2.747H74.354z"/>
		<path fill="#333333" d="M81.366,41.514h1.017l1.323,3.148l0.037-0.015l0.282-0.968l0.784-2.166h0.821l-1.36,3.736h-1.017
			l-1.336-3.148l-0.024,0.015l-0.282,0.976l-0.784,2.158h-0.821L81.366,41.514z"/>
	</g>
	<g>
		<path fill="none" stroke="#333333" stroke-linejoin="round" d="M8.528,22.594v-6.221h10.535c3.538,0,6.332,0.858,8.383,2.574
			c2.05,1.716,3.076,4.105,3.076,7.168c0,2.271-0.748,4.29-2.244,6.059s-3.556,2.97-6.178,3.604l11.908,17.848h-5.413L17.664,36.703
			h-4.805v16.924h-4.33V31.013 M12.858,32.927h5.465c2.288,0,4.145-0.62,5.571-1.861c1.426-1.241,2.139-2.803,2.139-4.687
			c0-4.154-2.535-6.231-7.604-6.231h-5.571V32.927z"/>
		<path fill="none" stroke="#333333" stroke-linejoin="round" d="M46.548,46.75v3.102h15.129v3.775H42.218v-6.805 M42.218,40.261
			V16.373h19.3v3.775h-14.97v11.538h14.39v3.775h-14.39v4.705"/>
		<path fill="none" stroke="#333333" stroke-linejoin="round" d="M84.506,15.694c0.374-0.022,0.755-0.034,1.144-0.034
			c2.481,0,4.946,0.379,7.393,1.135l-0.977,3.696c-2.218-0.756-4.321-1.135-6.31-1.135c-2.253,0-4.088,0.515-5.505,1.544
			c-1.417,1.03-2.125,2.495-2.125,4.396c0,2.253,1.857,4.234,5.571,5.941c2.746,1.267,4.563,2.147,5.452,2.64
			c0.889,0.493,1.791,1.171,2.707,2.033c0.915,0.863,1.65,1.879,2.205,3.049c0.554,1.171,0.832,2.486,0.832,3.947
			c0,3.627-1.219,6.438-3.657,8.436c-2.438,1.998-5.312,2.997-8.621,2.997c-3.204,0-6.011-0.634-8.422-1.901l0.898-3.723
			c2.833,1.285,5.307,1.928,7.419,1.928c2.464,0,4.44-0.638,5.927-1.914s2.231-3.032,2.231-5.268c0-1.654-0.484-3.058-1.452-4.211
			c-0.968-1.152-2.755-2.328-5.359-3.525c-2.676-1.232-4.405-2.073-5.188-2.521s-1.562-1.069-2.336-1.861
			c-0.775-0.792-1.373-1.681-1.795-2.667s-0.634-2.06-0.634-3.221c0-3.08,1.109-5.483,3.327-7.208
			c0.433-0.336,0.888-0.64,1.365-0.911"/>
		<path fill="none" stroke="#333333" stroke-linejoin="round" d="M122.956,29.575V16.373h4.33v25.531
			c0,4.312-0.875,7.463-2.627,9.452s-4.414,2.983-7.986,2.983c-7.199,0-10.799-4.109-10.799-12.33V16.373h4.33v25.241
			c0,5.949,2.156,8.924,6.469,8.924c2.164,0,3.754-0.704,4.766-2.112s1.518-3.696,1.518-6.865v-5.62"/>
		<path fill="none" stroke="#333333" stroke-linejoin="round" d="M146.464,25.893l2.736,7.457l6.205-16.977h5.625v37.254h-4.172
			V21.68l-5.625,15.287h-4.092l-5.623-15.287v31.947h-4.172V16.373h5.623l1.213,3.303"/>
		<path fill="none" stroke="#333333" stroke-linejoin="round" d="M172.013,21.156v-4.783h19.301v3.775h-14.971v11.538h14.389v3.775
			h-14.389v14.39h15.129v3.775h-19.459V28.138"/>
	</g>
</g>
</svg>
